<svg width="950" height="729" viewBox="0 0 950 729" fill="none" xmlns="http://www.w3.org/2000/svg">
<g id="undraw_Ride_a_bicycle_2yok 1">
<path id="Vector" d="M162.368 107.201C157.277 113.377 155.317 122.06 153.125 130.223C135.477 196.011 91.9874 248.928 42.4603 286.726C21.4866 302.736 -4.04793 324.208 0.54066 352.914C3.01144 368.33 13.8513 379.678 21.9046 392.234C38.8006 418.526 44.2809 454.262 36.2277 485.735C27.0691 521.545 1.46952 554.96 9.39274 591.169C14.2786 613.458 30.8681 629.32 46.8167 642.953C71.6979 664.208 97.3718 684.119 123.838 702.686C141.58 715.131 160.454 727.241 181.131 728.82C199.336 730.213 217.171 723.294 234.457 716.468C249.56 710.497 265.044 704.284 277.24 692.322C285.201 684.512 291.545 674.436 300.388 668.046C321.157 653.039 347.834 662.548 371.65 668.975C427.847 684.057 487.991 678.55 541.465 653.429C623.493 614.888 686.015 533.953 766.251 490.527C800.749 471.851 838.275 460.261 870.219 436.208C888.215 422.513 903.681 405.78 915.919 386.764C940.069 349.515 953.129 302.021 949.358 255.531C945.587 209.041 924.455 164.241 891.267 137.996C855.738 109.903 810.864 104.656 770.44 87.7911C728.697 70.3689 691.561 40.4279 650.217 21.7334C616.763 6.64832 580.355 -0.756877 543.665 0.06109C506.975 0.879057 470.933 9.89943 438.185 26.4604C393.191 49.2133 347.583 102.297 297.471 106.328C261.765 109.114 190.252 73.3778 162.368 107.201Z" fill="url(#paint0_linear)"/>
<g id="main_body">
<path id="Vector_2" d="M439.213 526.687L420.21 507.937L414.271 513.954L433.274 532.703L439.213 526.687Z" fill="#535461"/>
<path id="Vector_3" d="M424.743 498.964C424.743 498.964 435.773 493.145 440.036 489.399C442.602 487.154 445.361 485.14 448.281 483.38L462.12 474.958L491.043 472.733L492.377 477.627C492.377 477.627 494.602 484.745 472.354 490.974C450.106 497.202 438.982 506.99 438.982 506.99C438.982 506.99 424.743 511.866 424.743 498.964Z" fill="#DB8B8B"/>
<path id="Vector_4" opacity="0.1" d="M440.161 506.024C439.373 506.625 438.982 506.972 438.982 506.972C438.982 506.972 424.743 511.866 424.743 498.964C424.743 498.964 425.432 498.599 426.523 497.99C427.624 499.783 429.167 501.264 431.004 502.291C432.84 503.319 434.91 503.858 437.015 503.858H438.523L440.161 506.024Z" fill="black"/>
<path id="Vector_5" opacity="0.05" d="M491.959 480.083C490.722 482.703 486.455 487.01 472.354 490.956C454.284 496.014 443.551 503.413 440.161 506.024C439.373 506.625 438.982 506.972 438.982 506.972C438.982 506.972 424.743 511.866 424.743 498.964C424.743 498.964 425.432 498.599 426.523 497.99C429.829 496.179 436.828 492.206 440.023 489.381C442.588 487.136 445.348 485.121 448.268 483.362L462.106 474.94L467.259 474.544L491.029 472.715L492.364 477.609C492.364 477.609 492.676 478.566 491.959 480.083Z" fill="black"/>
<path id="Vector_6" d="M424.965 496.072L413.174 503.858L447.703 532.776C447.703 532.776 452.775 529.662 450.106 526.102C450.106 526.102 441.206 518.539 440.761 507.862L438.092 504.303H436.583C434.033 504.303 431.545 503.511 429.463 502.037C427.382 500.563 425.81 498.478 424.965 496.072V496.072Z" fill="#ABB1D1"/>
<path id="Vector_7" opacity="0.1" d="M491.959 480.083C484.84 476.644 467.459 476.275 467.459 476.275L467.272 474.544L491.042 472.715L492.377 477.609C492.377 477.609 492.676 478.566 491.959 480.083Z" fill="black"/>
<path id="Vector_8" d="M467.459 475.385C467.459 475.385 488.373 475.83 493.712 480.279L491.043 426.447H462.12L467.459 475.385Z" fill="#ABB1D1"/>
<path id="Vector_9" opacity="0.05" d="M467.459 475.162C467.459 475.162 488.373 475.607 493.712 480.056L491.043 426.224H462.12L467.459 475.162Z" fill="black"/>
<path id="Vector_10" d="M484.261 442.445C484.261 442.445 536.611 440.666 537.679 447.432C538.747 454.199 485.329 451.347 485.329 451.347C485.329 451.347 481.057 447.072 484.261 442.445Z" fill="#535461"/>
<path id="Vector_11" opacity="0.05" d="M484.261 442.445C484.261 442.445 536.611 440.666 537.679 447.432C538.747 454.199 485.329 451.347 485.329 451.347C485.329 451.347 481.057 447.072 484.261 442.445Z" fill="black"/>
<path id="Vector_12" d="M441.883 469.508H432.623V549.98H441.883V469.508Z" fill="#7E7E7E"/>
<path id="Vector_13" opacity="0.1" d="M441.883 469.503V475.701C438.804 476.101 435.653 476.355 432.623 476.453V469.503H441.883Z" fill="black"/>
<path id="Vector_14" d="M441.189 462.834C439.889 462.734 438.597 462.56 437.317 462.314C432.298 461.353 419.643 459.338 416.239 462.759C411.968 467.03 413.392 474.508 424.787 475.576C436.183 476.644 455.77 473.797 459.69 469.521C459.69 469.503 452.602 463.711 441.189 462.834Z" fill="#535461"/>
<path id="Vector_15" d="M439.391 491.583L536.616 461.317L539.82 468.796L440.103 502.977L439.391 491.583Z" fill="#7D7D7D"/>
<path id="Vector_16" d="M468.238 539.298L538.396 470.22L542.311 475.914L475.357 545.704L468.238 539.298Z" fill="#7E7E7E"/>
<path id="Vector_17" opacity="0.1" d="M557.832 515.808C555.609 516.382 553.441 517.152 551.353 518.108L547.099 506.225C549.332 505.252 551.631 504.438 553.978 503.791L557.832 515.808Z" fill="black"/>
<path id="Vector_18" d="M569.735 550.692L564.751 553.539L529.981 456.406L528.424 452.059L536.616 447.428L538.667 453.825L569.735 550.692Z" fill="#7E7E7E"/>
<path id="Vector_19" opacity="0.1" d="M538.667 453.825L529.981 456.406L528.424 452.059L536.616 447.428L538.667 453.825Z" fill="black"/>
<path id="Vector_20" d="M485.685 461.317L534.476 444.581C534.476 444.581 543.023 445.648 539.815 452.771L490.673 467.368C490.673 467.368 483.198 468.08 485.685 461.317Z" fill="#535461"/>
<path id="Vector_21" opacity="0.1" d="M430.665 554.073C430.665 556.802 430.453 559.527 430.033 562.223C425.762 561.916 421.348 561.471 417.022 561.026C417.983 555.736 417.864 550.306 416.671 545.064C420.885 544.174 425.188 543.324 429.388 542.554C430.239 546.335 430.667 550.198 430.665 554.073V554.073Z" fill="black"/>
<path id="Vector_22" opacity="0.1" d="M441.883 540.512V549.975H432.623V541.967C435.827 541.411 438.941 540.917 441.883 540.512Z" fill="black"/>
<path id="Vector_23" d="M382.053 553.908C382.053 553.908 456.842 534.333 462.894 541.803C468.946 549.272 475.357 559.247 456.5 562.806C437.642 566.365 380.642 556.751 380.642 556.751L382.053 553.908Z" fill="#7E7E7E"/>
<path id="Vector_24" opacity="0.1" d="M418.838 520.933L409.333 529.63C407.65 527.47 405.748 525.49 403.656 523.722L412.528 514.455C414.813 516.43 416.924 518.597 418.838 520.933V520.933Z" fill="black"/>
<path id="Vector_25" d="M379.561 549.98L435.471 491.583L437.255 505.112L382.409 555.318L379.561 549.98Z" fill="#7D7D7D"/>
<path id="Vector_26" opacity="0.1" d="M466.454 559.594C472.747 559.594 477.849 554.493 477.849 548.2C477.849 541.908 472.747 536.807 466.454 536.807C460.16 536.807 455.058 541.908 455.058 548.2C455.058 554.493 460.16 559.594 466.454 559.594Z" fill="black"/>
<path id="Vector_27" d="M467.17 559.594C473.464 559.594 478.566 554.493 478.566 548.2C478.566 541.908 473.464 536.807 467.17 536.807C460.877 536.807 455.775 541.908 455.775 548.2C455.775 554.493 460.877 559.594 467.17 559.594Z" fill="#535461"/>
<path id="Vector_28" d="M464.128 547.344L464.124 547.347C462.786 548.348 462.512 550.243 463.513 551.581L472.557 563.674C473.558 565.012 475.454 565.285 476.793 564.285L476.796 564.282C478.134 563.281 478.408 561.386 477.407 560.048L468.363 547.955C467.362 546.617 465.466 546.344 464.128 547.344Z" fill="#6C63FF"/>
<path id="Vector_29" d="M518.63 389.966L517.571 403.361C517.45 405.058 517.472 406.762 517.638 408.455C517.776 409.955 517.638 412.58 516.17 416.584C514.284 421.698 513.31 427.104 513.291 432.555V447.802L503.057 446.022C503.057 446.022 503.502 424.667 501.722 421.108C499.942 417.549 503.057 385.962 503.057 385.962L518.63 389.966Z" fill="#DB8B8B"/>
<path id="Vector_30" opacity="0.05" d="M518.105 396.604L517.571 403.361C517.451 405.057 517.475 406.76 517.643 408.451C517.781 409.95 517.643 412.575 516.174 416.584C514.289 421.698 513.315 427.104 513.295 432.555V447.802L503.061 446.022C503.061 446.022 503.506 424.667 501.726 421.108C500.467 418.586 501.659 402.005 502.465 392.542C502.799 388.649 503.061 385.962 503.061 385.962L518.635 389.966L518.105 396.604Z" fill="black"/>
<path id="Vector_31" d="M467.913 492.291L464.064 514.179C463.579 517.102 462.834 519.975 461.839 522.766C459.583 528.932 461.025 537.576 462.12 542.292C462.605 544.374 463.01 545.691 463.01 545.691L451.441 551.919L447.881 549.25V547.471L447.436 507.875C444.766 501.647 445.656 492.304 447.436 488.745C447.942 487.576 448.298 486.347 448.495 485.088C449.385 480.319 449.661 473.619 449.661 473.619C449.661 473.619 456.78 461.607 465.235 469.615C468.349 472.564 469.533 476.421 469.782 480.114C470.218 486.436 467.913 492.291 467.913 492.291Z" fill="#DB8B8B"/>
<path id="Vector_32" opacity="0.1" d="M469.782 480.101C463.61 483.767 452.873 484.803 448.495 485.075C449.385 480.305 449.661 473.605 449.661 473.605C449.661 473.605 456.78 461.593 465.234 469.601C468.349 472.551 469.533 476.408 469.782 480.101Z" fill="black"/>
<path id="Vector_33" d="M484.813 469.156C480.081 471.676 475.61 474.656 471.464 478.054C464.345 483.838 446.546 484.283 446.546 484.283V477.609C446.991 469.601 439.427 460.703 429.192 435.79C422.656 419.88 424.467 410.876 426.629 406.427C427.857 403.913 429.192 402.868 429.192 402.868L484.813 413.545L486.802 419.507L491.043 432.23C491.043 432.23 475.469 433.12 472.799 434.455C470.129 435.79 471.909 447.802 471.909 447.802C469.239 460.259 484.813 469.156 484.813 469.156Z" fill="#ABB1D1"/>
<path id="Vector_34" opacity="0.1" d="M518.63 389.966L518.105 396.604C510.363 398.828 504.836 391.745 504.836 391.745C504.029 391.962 503.235 392.228 502.46 392.542C502.794 388.649 503.057 385.962 503.057 385.962L518.63 389.966Z" fill="black"/>
<path id="Vector_35" opacity="0.1" d="M486.802 419.507C486.593 421.584 486.593 422.888 486.593 422.888C486.593 422.888 476.359 431.341 459.005 418.439C441.651 405.537 426.078 409.096 426.078 409.096C426.078 409.096 426.26 408.064 426.629 406.427C427.857 403.913 429.192 402.868 429.192 402.868L484.813 413.545L486.802 419.507Z" fill="black"/>
<path id="Vector_36" d="M524.629 372.593C523.467 381.646 523.08 393.058 523.08 393.058C512.846 401.066 504.836 390.833 504.836 390.833C495.172 393.427 490.629 401.884 488.488 409.265C487.342 413.257 486.705 417.379 486.593 421.531C486.593 421.531 483.887 423.755 478.904 424.2C474.192 424.596 467.437 423.368 459.005 417.082C441.651 404.18 426.078 407.739 426.078 407.739C426.078 407.739 429.192 389.944 436.312 384.605C443.431 379.266 448.771 372.593 457.67 352.128C466.569 331.663 484.813 336.557 484.813 336.557C484.813 336.557 485.703 332.553 502.167 336.557C506.177 337.607 509.888 339.573 513.01 342.3C521.816 349.703 526.088 361.186 524.629 372.593Z" fill="white"/>
<path id="Vector_37" d="M508.116 346.589C508.094 347.181 508.045 347.839 507.965 348.573C507.075 356.581 506.185 355.691 496.395 357.471C490.308 358.579 487.145 353.494 485.623 349.49C485.072 348.039 484.657 346.541 484.381 345.014L505.74 341.455C505.74 341.455 508.298 340.739 508.116 346.589Z" fill="#DB8B8B"/>
<path id="Vector_38" opacity="0.05" d="M488.488 409.287C487.342 413.28 486.705 417.401 486.593 421.553C486.593 421.553 483.887 423.777 478.904 424.222C478.763 423.939 478.656 423.64 478.584 423.333C477.694 419.329 471.019 412.21 471.019 412.21C466.569 408.206 465.68 401.088 465.68 401.088L458.338 379.511L455.89 377.509C455.89 377.509 466.124 369.501 475.024 376.174C483.923 382.847 481.253 397.084 481.253 397.084L483.033 401.978C484.88 403.535 486.758 406.28 488.488 409.287Z" fill="black"/>
<path id="Vector_39" d="M457.225 377.064L467.014 400.643C467.014 400.643 467.904 407.761 472.354 411.765C472.354 411.765 479.028 418.884 479.918 422.888C480.808 426.892 493.267 437.569 493.267 437.569C493.267 437.569 504.836 448.246 505.726 452.25C505.726 452.25 516.406 455.365 515.071 461.593C515.071 461.593 523.08 453.585 515.071 446.022C507.061 438.459 496.382 422.888 496.382 422.888C496.382 422.888 490.153 406.427 484.368 401.533L482.588 396.639C482.588 396.639 485.258 382.403 476.359 375.729C467.459 369.056 457.225 377.064 457.225 377.064Z" fill="#DB8B8B"/>
<path id="Vector_40" opacity="0.1" d="M463.01 545.678L451.441 551.906L447.881 549.237V547.457C451.878 547.173 455.762 546.002 459.25 544.027C460.318 543.422 461.323 542.826 462.129 542.301C462.596 544.361 463.01 545.678 463.01 545.678Z" fill="black"/>
<path id="Vector_41" opacity="0.1" d="M476.359 358.378L482.588 382.848C482.588 382.848 463.455 385.962 459.45 382.848C455.445 379.733 447.881 378.843 447.881 378.843C447.881 378.843 455.89 355.709 460.34 353.04C464.79 350.37 476.359 358.378 476.359 358.378Z" fill="black"/>
<path id="Vector_42" d="M476.359 357.489L482.588 381.958C482.588 381.958 463.455 385.072 459.45 381.958C455.445 378.843 447.881 377.954 447.881 377.954C447.881 377.954 455.89 354.819 460.34 352.15C464.79 349.481 476.359 357.489 476.359 357.489Z" fill="white"/>
<path id="Vector_43" opacity="0.1" d="M508.116 346.144C506.87 347.864 505.285 349.311 503.458 350.396C501.632 351.481 499.603 352.18 497.496 352.452C495.389 352.724 493.249 352.562 491.207 351.976C489.165 351.39 487.265 350.392 485.623 349.045C485.072 347.594 484.657 346.096 484.381 344.569L505.74 341.01C505.74 341.01 508.298 340.294 508.116 346.144Z" fill="black"/>
<path id="Vector_44" d="M511.066 336.579C511.066 340.709 509.425 344.669 506.505 347.589C503.584 350.509 499.623 352.15 495.492 352.15C491.362 352.15 487.401 350.509 484.48 347.589C481.559 344.669 479.918 340.709 479.918 336.579C479.918 336.321 479.918 336.063 479.918 335.805C480.021 331.675 481.76 327.755 484.754 324.908C487.747 322.06 491.749 320.518 495.879 320.621C500.01 320.723 503.93 322.462 506.778 325.455C509.626 328.448 511.169 332.449 511.066 336.579V336.579Z" fill="#DB8B8B"/>
<path id="Vector_45" opacity="0.1" d="M511.066 336.579C511.067 338.014 510.87 339.442 510.479 340.823C509.275 341.085 508.019 340.97 506.883 340.494C505.219 339.84 503.791 338.714 502.193 337.905C497.695 335.627 492.342 336.076 487.358 336.828C484.884 337.202 482.076 337.549 480.132 335.974C480.065 335.921 480.001 335.865 479.941 335.805C480.043 331.675 481.783 327.755 484.776 324.908C487.769 322.06 491.771 320.518 495.902 320.621C500.032 320.723 503.952 322.462 506.801 325.455C509.649 328.448 511.191 332.449 511.088 336.579H511.066Z" fill="black"/>
<path id="Vector_46" opacity="0.05" d="M438.314 384.405C438.314 384.405 449.883 387.519 453.443 395.527C457.003 403.535 466.632 404.999 466.632 404.999" fill="black"/>
<path id="Vector_47" d="M481.921 560.581H455.223V569.034H481.921V560.581Z" fill="#535461"/>
<path id="Vector_48" d="M459.232 544.895C461.621 543.56 463.717 542.225 463.9 541.674C463.9 541.674 469.929 548.036 475.3 550.011C477.106 550.678 478.835 551.537 480.457 552.573C482.584 553.908 485.618 555.479 488.373 555.479C488.373 555.479 494.602 560.817 482.588 561.707C470.574 562.597 442.541 559.483 442.541 559.483L444.321 548.36C449.522 548.665 454.699 547.462 459.232 544.895Z" fill="#ABB1D1"/>
</g>
<g id="left_wheel">
<path id="Vector_49" d="M382.961 600.717L380.153 556.863L380.095 556.769L377.264 557.754L364.241 595.746L343.529 581.064L376.521 557.149L376.552 557.055L376.74 556.988L378.868 555.443L344.277 536.051L335.804 545.364L337.147 554.095L376.924 554.821V555.716L336.404 554.991L334.872 545.077L346.471 532.334L363.825 512.095L364.134 512.933L367.806 508.903L381.447 511.347V510.806L382.343 510.833V511.509L402.657 515.145L383.718 553.03L380.955 555.031V555.255V555.506L424.753 540.246L419.554 581.087L382.383 557.413L381.076 556.679L402.993 591.999L382.961 600.717ZM381.17 558.475L383.789 599.391L401.725 591.609L381.17 558.475ZM345.083 581.055L363.798 594.322L376.042 558.618L345.083 581.055ZM381.949 556.133L382.885 556.657L418.869 579.582L423.705 541.58L381.949 556.133ZM378.769 552.909L379.893 554.722L380.09 554.579L381.434 512.252L368.115 509.87L364.461 513.9L378.769 552.909ZM344.993 535.419L378.509 554.225L377.927 553.272L363.785 514.643L347.129 532.943L344.993 535.419ZM382.343 512.409L380.999 553.925L383.024 552.457L401.345 515.821L382.343 512.409Z" fill="#535461"/>
<path id="Vector_50" d="M432.084 543.833C430.288 535.854 426.652 528.405 421.466 522.08C419.541 519.73 417.418 517.549 415.12 515.561C406.286 507.935 395.169 503.458 383.515 502.832C371.86 502.205 360.328 505.466 350.727 512.102C341.127 518.737 334.002 528.373 330.47 539.495C326.938 550.617 327.2 562.597 331.215 573.554C335.229 584.512 342.769 593.826 352.65 600.036C362.532 606.246 374.196 608.999 385.812 607.865C397.427 606.73 408.338 601.771 416.83 593.766C425.323 585.762 430.917 575.164 432.734 563.637C433.157 560.923 433.369 558.181 433.37 555.434C433.373 551.531 432.942 547.64 432.084 543.833ZM380.498 595.034C372.333 595.026 364.369 592.503 357.688 587.809C351.007 583.116 345.935 576.479 343.16 568.801C340.385 561.123 340.042 552.777 342.179 544.898C344.315 537.019 348.827 529.988 355.1 524.763C361.373 519.538 369.104 516.371 377.241 515.694C385.378 515.016 393.526 516.861 400.577 520.976C407.629 525.092 413.242 531.279 416.652 538.697C420.063 546.114 421.105 554.402 419.639 562.433C417.959 571.586 413.123 579.862 405.972 585.818C398.82 591.775 389.806 595.036 380.498 595.034V595.034Z" fill="#535461"/>
<path id="Vector_51" d="M380.498 560.991C383.666 560.991 386.235 558.423 386.235 555.255C386.235 552.087 383.666 549.519 380.498 549.519C377.33 549.519 374.761 552.087 374.761 555.255C374.761 558.423 377.33 560.991 380.498 560.991Z" fill="#535461"/>
</g>
<g id="right_wheel">
<path id="Vector_52" d="M572.004 597.118L569.201 553.282L569.142 553.188L566.312 554.173L553.284 592.148L532.572 577.461L565.573 553.546L565.604 553.452L565.793 553.385L567.92 551.84L533.329 532.448L524.851 541.761L526.195 550.493L565.963 551.2V552.096L525.442 551.37L523.92 541.47L535.514 528.731L552.854 508.506L553.163 509.343L556.836 505.313L570.513 507.763V507.221L571.408 507.248V507.924L591.722 511.56L572.765 549.463L570.002 551.464V551.688V551.939L613.805 536.679L608.606 577.52L571.435 553.846L570.128 553.112L592.045 588.436L572.004 597.118ZM570.213 554.876L572.833 595.793L590.768 588.011L570.213 554.876ZM534.13 577.461L552.846 590.729L565.089 555.024L534.13 577.461ZM570.996 552.539L571.932 553.063L607.916 575.988L612.753 537.987L570.996 552.539ZM567.817 549.315L568.941 551.128L569.138 550.985L570.481 508.658L557.163 506.267L553.508 510.297L567.817 549.315ZM534.054 531.83L567.57 550.636L566.988 549.682L552.846 511.054L536.186 529.358L534.054 531.83ZM571.391 508.819L570.047 550.322L572.071 548.854L590.392 512.218L571.391 508.819Z" fill="#535461"/>
<path id="Vector_53" d="M569.725 499.156C564.971 499.151 560.24 499.79 555.658 501.055C553.295 501.706 550.981 502.525 548.734 503.504C536.764 508.693 527.143 518.136 521.733 530.007C516.323 541.877 515.509 555.332 519.448 567.769C523.387 580.205 531.799 590.739 543.057 597.332C554.315 603.926 567.618 606.111 580.394 603.464C593.17 600.817 604.51 593.527 612.22 583.003C619.931 572.48 623.464 559.471 622.136 546.494C620.808 533.517 614.713 521.493 605.031 512.749C595.349 504.005 582.767 499.162 569.72 499.156H569.725ZM569.545 591.436C560.463 591.432 551.655 588.322 544.584 582.623C537.513 576.923 532.605 568.976 530.675 560.103C528.745 551.229 529.909 541.962 533.974 533.841C538.039 525.721 544.759 519.234 553.02 515.46C555.121 514.498 557.303 513.723 559.541 513.145C565.01 511.725 570.718 511.487 576.287 512.445C581.855 513.403 587.156 515.536 591.836 518.702C596.516 521.868 600.467 525.994 603.428 530.806C606.389 535.617 608.291 541.004 609.007 546.608C609.724 552.212 609.238 557.904 607.583 563.305C605.928 568.707 603.141 573.694 599.408 577.935C595.676 582.176 591.082 585.574 585.934 587.902C580.785 590.229 575.2 591.434 569.55 591.436H569.545Z" fill="#535461"/>
<path id="Vector_54" d="M569.545 557.393C572.714 557.393 575.282 554.825 575.282 551.657C575.282 548.489 572.714 545.921 569.545 545.921C566.377 545.921 563.809 548.489 563.809 551.657C563.809 554.825 566.377 557.393 569.545 557.393Z" fill="#535461"/>
</g>
<g id="hat">
<path id="Vector_55" d="M469.303 328.098C470.251 331.07 474.803 331.163 477.139 333.352C478.354 334.491 478.919 336.172 480.254 337.187C482.109 338.602 484.788 338.29 487.151 337.952C491.907 337.276 497.016 336.871 501.305 338.922C502.827 339.647 504.193 340.661 505.781 341.253C507.37 341.845 509.341 341.916 510.632 340.866C511.664 340.025 512.042 338.642 512.977 337.716C513.702 336.987 514.712 336.577 515.54 335.937C517.355 334.566 518.138 332.333 518.654 330.198C519.722 325.802 520.029 321.064 518.209 316.895C516.389 312.727 512.011 309.332 507.232 309.55C505.768 309.617 504.34 309.995 502.88 310.155C499.076 310.542 495.316 309.265 491.498 309.047C490.391 308.913 489.267 309.066 488.236 309.492C487.459 309.924 486.789 310.525 486.274 311.25C484.526 313.539 483.329 316.2 482.777 319.026C482.332 321.157 482.309 323.088 479.698 323.417C476.73 323.809 467.296 321.811 469.303 328.098Z" fill="#472727"/>
</g>
</g>
<defs>
<linearGradient id="paint0_linear" x1="709.72" y1="57.5808" x2="94.9282" y2="678.99" gradientUnits="userSpaceOnUse">
<stop stop-color="#2D81F7"/>
<stop offset="0.729167" stop-color="#7E2FFF" stop-opacity="0.22"/>
<stop offset="1" stop-color="#9E63FF" stop-opacity="0.05"/>
</linearGradient>
</defs>
</svg>
